<?xml version="1.0" encoding="utf-8"?>
<!-- Generator: Adobe Illustrator 16.0.0, SVG Export Plug-In . SVG Version: 6.00 Build 0)  -->
<!DOCTYPE svg PUBLIC "-//W3C//DTD SVG 1.1//EN" "http://www.w3.org/Graphics/SVG/1.1/DTD/svg11.dtd">
<svg version="1.1" id="Layer_1" xmlns="http://www.w3.org/2000/svg" xmlns:xlink="http://www.w3.org/1999/xlink" x="0px" y="0px"
     width="70px" height="70px" viewBox="0 0 70 70" enable-background="new 0 0 70 70" xml:space="preserve">
<g>
    <polygon fill-rule="evenodd" clip-rule="evenodd" fill="#EC1C24" points="0,0 70,0 70,70 0,70 0,0     "/>
    <path fill="#FFFFFF" d="M13.689,47.956v-2.873c0-0.312,0.094-0.38,0.44-0.38h2.594v6.021h-3.508
        C13.562,50.092,13.689,48.804,13.689,47.956L13.689,47.956z M18.44,52.101v2.023c0,0.204,0.049,0.398,0.197,0.547
        c0.148,0.148,0.343,0.191,0.547,0.197c0.33,0.011,0.683-0.114,0.683-0.744v-2.693c0-0.441-0.077-0.703-0.702-0.703
        c-0.186,0-0.404-0.004-0.655-0.004h-0.18v-6.415c0-0.641-0.18-0.968-0.794-0.968h-4.238c-1.073,0-1.204,0.163-1.204,1.246v3.423
        c0,0.688-0.237,2.681-0.979,2.713l-0.389,0.001c-0.474,0.001-0.565,0.255-0.565,0.707v2.688c0,0.204,0.047,0.4,0.192,0.549
        c0.145,0.148,0.27,0.196,0.472,0.196c0.208,0,0.41-0.047,0.56-0.197c0.148-0.148,0.197-0.343,0.197-0.548v-2.019H18.44
        L18.44,52.101z M38.09,51.631c0,0.229-0.078,0.421-0.235,0.577c-0.156,0.157-0.345,0.235-0.564,0.235
        c-0.229,0-0.421-0.08-0.578-0.241c-0.156-0.161-0.235-0.352-0.235-0.571v-4.93l-1.727,3.783c-0.078,0.171-0.195,0.298-0.331,0.387
        c-0.135,0.09-0.288,0.134-0.457,0.134c-0.161,0-0.311-0.042-0.451-0.127c-0.14-0.085-0.244-0.216-0.336-0.381l-1.728-3.796v4.941
        c0,0.221-0.078,0.409-0.235,0.565c-0.156,0.157-0.344,0.235-0.565,0.235c-0.22,0-0.408-0.078-0.565-0.235
        c-0.157-0.156-0.235-0.345-0.235-0.565v-7.769c0-0.237,0.08-0.432,0.241-0.584c0.161-0.152,0.355-0.229,0.584-0.229
        c0.456,0,0.629,0.139,0.851,0.521l2.459,5.043l2.476-4.909c0.237-0.409,0.416-0.637,0.806-0.654c0.236-0.011,0.434,0.08,0.59,0.241
        c0.157,0.16,0.235,0.352,0.235,0.571V51.631L38.09,51.631z M43.307,50.687c0,0.421-0.15,0.781-0.45,1.081s-0.659,0.449-1.08,0.449
        s-0.781-0.149-1.081-0.449s-0.449-0.66-0.449-1.081s0.149-0.78,0.449-1.08s0.66-0.45,1.081-0.45s0.78,0.15,1.08,0.45
        S43.307,50.266,43.307,50.687L43.307,50.687z M51.532,44.688c-0.082,0.268-0.233,0.483-0.454,0.646
        c-0.222,0.163-0.502,0.209-0.839,0.14c-0.094-0.023-0.184-0.041-0.271-0.053c-0.088-0.012-0.248-0.018-0.48-0.018
        c-0.35,0-0.661,0.076-0.936,0.228c-0.272,0.151-0.463,0.413-0.567,0.785v4.857c0,0.325-0.113,0.603-0.341,0.829
        c-0.227,0.228-0.503,0.341-0.829,0.341c-0.338,0-0.62-0.113-0.848-0.341c-0.227-0.227-0.34-0.504-0.34-0.829V45.91
        c0-1.637-0.224-2.709,1.126-2.681c1.15,0.023,1.158,0.965,1.205,1.054c0.521-0.643,0.922-0.972,1.564-1.081
        c0.196-0.033,0.366-0.035,0.506-0.035c0.232,0,0.44,0.024,0.62,0.07c0.181,0.046,0.335,0.11,0.463,0.192
        c0.222,0.14,0.364,0.326,0.429,0.56C51.604,44.222,51.602,44.454,51.532,44.688L51.532,44.688z M58.776,52.389
        c-1.178,0.001-1.179-0.754-1.252-1.287c-0.588,1.195-2.919,1.914-4.401,0.434c-0.264-0.264-0.405-0.635-0.516-1.031
        c-0.11-0.396-0.166-0.838-0.166-1.327v-4.839c0-0.326,0.114-0.605,0.341-0.839c0.227-0.232,0.504-0.35,0.83-0.35
        c0.325,0,0.605,0.117,0.838,0.35c0.233,0.233,0.35,0.513,0.35,0.839v4.4c0,0.198,0.018,0.382,0.053,0.551
        c0.034,0.169,0.096,0.312,0.183,0.428c0.088,0.117,0.21,0.207,0.367,0.271c0.157,0.064,0.364,0.097,0.62,0.097
        c0.326,0,0.611-0.064,0.856-0.192c0.244-0.128,0.442-0.303,0.594-0.524v-5.029c0-0.326,0.116-0.605,0.35-0.839
        c0.232-0.232,0.512-0.35,0.838-0.35s0.603,0.117,0.83,0.35c0.227,0.233,0.341,0.513,0.341,0.839v5.468
        C59.831,51.1,59.979,52.386,58.776,52.389L58.776,52.389z M24.403,52.205c-1.199,0-2.169-0.469-2.91-1.406
        c-0.676-0.86-1.013-1.906-1.013-3.138c0-1.242,0.337-2.3,1.013-3.171c0.73-0.938,1.7-1.406,2.91-1.406
        c1.22,0,2.195,0.469,2.926,1.406c0.664,0.86,0.997,1.918,0.997,3.171c0,1.242-0.337,2.288-1.013,3.138
        C26.583,51.736,25.613,52.205,24.403,52.205L24.403,52.205z M24.403,50.738c0.8,0,1.4-0.328,1.801-0.984
        c0.338-0.544,0.508-1.242,0.508-2.094c0-0.821-0.174-1.519-0.523-2.094c-0.42-0.677-1.016-1.016-1.785-1.016
        c-0.791,0-1.391,0.333-1.801,1.001c-0.339,0.563-0.508,1.268-0.508,2.108s0.169,1.539,0.508,2.094
        C23.012,50.41,23.613,50.738,24.403,50.738L24.403,50.738z M46.546,16.416c1.146,0.298,1.418,1.059,1.42,2.094
        c0,5.3,0,10.76,0,16.06c-0.002,1.076-0.304,1.804-1.42,2.094c-6.731,1.75-16.085,1.652-22.844,0.071
        c-1.223-0.286-1.667-0.966-1.668-2.166V18.51c0.002-1.22,0.459-1.882,1.668-2.166C30.461,14.763,39.813,14.666,46.546,16.416
        L46.546,16.416z M46.191,17.783c-6.523-1.696-15.619-1.592-22.168-0.06c-0.558,0.13-0.571,0.407-0.573,0.788v16.06
        c0.001,0.535,0.015,0.657,0.573,0.788c6.549,1.532,15.645,1.636,22.168-0.06c0.304-0.088,0.357-0.336,0.357-0.728
        c0-5.3,0-10.759,0-16.06C46.549,18.141,46.562,17.908,46.191,17.783L46.191,17.783z M42.475,19.643
        c1.194,0,2.169,0.974,2.169,2.168c0,1.195-0.975,2.168-2.169,2.168c-1.195,0-2.17-0.974-2.17-2.168
        C40.305,20.616,41.279,19.643,42.475,19.643L42.475,19.643z"/>
</g>
</svg>
